<?xml version="1.0" encoding="UTF-8"?>
<!DOCTYPE svg PUBLIC "-//W3C//DTD SVG 1.1//EN" "http://www.w3.org/Graphics/SVG/1.1/DTD/svg11.dtd">
<!-- Creator: CorelDRAW 2019 (64-Bit) -->
<svg xmlns="http://www.w3.org/2000/svg" xml:space="preserve" width="1529px" height="537px" version="1.1" style="shape-rendering:geometricPrecision; text-rendering:geometricPrecision; image-rendering:optimizeQuality; fill-rule:evenodd; clip-rule:evenodd"
viewBox="0 0 1529.54 537.09"
 xmlns:xlink="http://www.w3.org/1999/xlink"
 xmlns:xodm="http://www.corel.com/coreldraw/odm/2003">
 <defs>
  <style type="text/css">
   <![CDATA[
    .str1 {stroke:#3d464d;stroke-width:5.91;stroke-miterlimit:22.9256}
    .str0 {stroke:#3d464d;stroke-width:2.36;stroke-miterlimit:22.9256}
    .fil1 {fill:none}
    .fil2 {fill:#FEFEFE}
    .fil0 {fill:#3d464d}
    .fil3 {fill:#ffd333}
   ]]>
  </style>
 </defs>
 <g id="Слой_x0020_1">
  <metadata id="CorelCorpID_0Corel-Layer"/>
  <polygon class="fil0" points="3.25,535.91 1528.35,535.91 1528.35,378.5 3.25,378.5 "/>
  <polygon class="fil1 str0" points="3.25,535.91 1528.35,535.91 1528.35,378.5 3.25,378.5 "/>
  <path class="fil2" d="M541.71 2.95l173.57 0.08c19.94,0.01 36.25,15.26 36.25,33.89l-0.07 162.21c-0.01,18.63 -16.33,33.87 -36.27,33.86l-173.58 -0.07c-19.95,-0.01 -36.25,-15.26 -36.24,-33.89l0.06 -162.21c0.01,-18.63 16.33,-33.87 36.28,-33.87z"/>
  <path class="fil1 str1" d="M541.71 2.95l173.57 0.08c19.94,0.01 36.25,15.26 36.25,33.89l-0.07 162.21c-0.01,18.63 -16.33,33.87 -36.27,33.86l-173.58 -0.07c-19.95,-0.01 -36.25,-15.26 -36.24,-33.89l0.06 -162.21c0.01,-18.63 16.33,-33.87 36.28,-33.87z"/>
  <path class="fil3" d="M561.86 29.32l133.25 0.06c15.52,0 28.21,11.87 28.2,26.37l-0.05 124.52c-0.01,14.5 -12.71,26.36 -28.23,26.36l-133.25 -0.06c-15.51,0 -28.2,-11.87 -28.2,-26.37l0.05 -124.52c0.01,-14.5 12.71,-26.36 28.23,-26.36z"/>
  <path class="fil0" d="M622.68 182.06c0.8,-4.12 1.23,-8.36 1.23,-12.69 0.02,-38.06 -32.26,-69.32 -72.54,-71.07l0 -11.41c1.37,0.05 2.73,0.14 4.09,0.24l1.44 -13.53c6.06,0.51 11.97,1.5 17.68,2.95l-2.28 13.52c5.31,1.44 10.43,3.34 15.29,5.64l6.22 -12.29c5.21,2.45 10.18,5.3 14.84,8.52l-7.46 11.75c4.65,3.32 8.94,7.06 12.82,11.16l10.2 -9.73c3.76,3.91 7.19,8.1 10.23,12.53l-11.13 9c2.72,4.18 5.05,8.61 6.95,13.23l13.38 -5.38c2.03,4.85 3.64,9.88 4.81,15.06l-14.08 3.5c0.91,4.23 1.47,8.58 1.66,13.02l14.55 -0.36c0.05,1.22 0.08,2.44 0.08,3.67 0,4.29 -0.31,8.53 -0.91,12.68l-27.07 -0.01z"/>
  <path class="fil0" d="M654.14 48.82c-0.8,4.12 -1.22,8.36 -1.22,12.68 -0.01,28.2 17.7,52.66 43.26,64.16l-0.01 12.45c-2.36,-0.89 -4.67,-1.88 -6.93,-2.95l-6.22 12.3c-5.21,-2.45 -10.18,-5.31 -14.84,-8.52l7.47 -11.76c-4.66,-3.31 -8.96,-7.05 -12.82,-11.15l-10.21 9.72c-3.76,-3.9 -7.19,-8.09 -10.23,-12.52l11.13 -9c-2.72,-4.18 -5.05,-8.61 -6.95,-13.23l-13.38 5.37c-2.03,-4.84 -3.64,-9.87 -4.81,-15.05l14.08 -3.5c-0.91,-4.23 -1.47,-8.58 -1.66,-13.02l-14.55 0.36c-0.05,-1.22 -0.08,-2.44 -0.08,-3.67 0,-4.3 0.32,-8.53 0.91,-12.68l27.06 0.01z"/>
  <path class="fil2" d="M267.26 2.95l173.58 0.08c19.94,0.01 36.25,15.26 36.25,33.89l-0.07 162.21c-0.01,18.63 -16.33,33.87 -36.28,33.86l-173.57 -0.07c-19.94,-0.01 -36.26,-15.26 -36.25,-33.89l0.07 -162.21c0.01,-18.63 16.33,-33.87 36.27,-33.87z"/>
  <path class="fil1 str1" d="M267.26 2.95l173.58 0.08c19.94,0.01 36.25,15.26 36.25,33.89l-0.07 162.21c-0.01,18.63 -16.33,33.87 -36.28,33.86l-173.57 -0.07c-19.94,-0.01 -36.26,-15.26 -36.25,-33.89l0.07 -162.21c0.01,-18.63 16.33,-33.87 36.27,-33.87z"/>
  <path class="fil3" d="M287.42 29.32l133.24 0.06c15.52,0 28.21,11.87 28.21,26.37l-0.05 124.52c-0.01,14.5 -12.71,26.36 -28.23,26.36l-133.25 -0.06c-15.52,-0.01 -28.21,-11.88 -28.2,-26.38l0.05 -124.51c0.01,-14.5 12.71,-26.36 28.23,-26.36z"/>
  <path class="fil0" d="M385.76 137.34c49.15,-30.47 51.17,-50.72 3.09,-24.03l-61.4 -0.03 -42.82 -15.85 -0.48 5.29 32.84 17.44 9.85 23.79 56.47 0.03 2.45 -6.64zm8.84 -23.99c33.44,-17.77 29.49,-2.31 -7.56,20.52l7.56 -20.52z"/>
  <path class="fil2" d="M816.15 2.96l173.58 0.07c19.94,0.01 36.25,15.26 36.24,33.89l-0.07 162.21c-0.01,18.63 -16.33,33.87 -36.27,33.86l-173.58 -0.07c-19.94,-0.01 -36.25,-15.26 -36.24,-33.89l0.07 -162.21c0,-18.63 16.32,-33.87 36.27,-33.86z"/>
  <path class="fil1 str1" d="M816.15 2.96l173.58 0.07c19.94,0.01 36.25,15.26 36.24,33.89l-0.07 162.21c-0.01,18.63 -16.33,33.87 -36.27,33.86l-173.58 -0.07c-19.94,-0.01 -36.25,-15.26 -36.24,-33.89l0.07 -162.21c0,-18.63 16.32,-33.87 36.27,-33.86z"/>
  <path class="fil3" d="M836.3 29.32l133.25 0.06c15.52,0.01 28.21,11.88 28.2,26.38l-0.05 124.51c0,14.5 -12.71,26.36 -28.22,26.36l-133.25 -0.06c-15.52,0 -28.21,-11.88 -28.21,-26.37l0.06 -124.52c0,-14.5 12.7,-26.36 28.22,-26.36z"/>
  <path class="fil0" d="M861.56 46.99c21.32,0.01 42.65,0.02 63.97,0.02 0.22,5.25 4.93,7.98 14.14,8.19l0 9.44 -25.89 -0.01 0 7.1 25.88 0.02 -0.01 17.61 -25.88 -0.01 -0.04 91.68 -26.95 -0.01 0.04 -91.68 -25.27 -0.01 0.01 -17.62 25.26 0.02 0.01 -7.11 -25.27 -0.01 0 -17.62z"/>
  <path class="fil2" d="M1090.59 2.96l173.57 0.07c19.95,0.01 36.26,15.26 36.25,33.89l-0.07 162.21c0,18.63 -16.33,33.87 -36.27,33.86l-173.57 -0.07c-19.95,-0.01 -36.26,-15.26 -36.25,-33.89l0.07 -162.21c0,-18.63 16.33,-33.87 36.27,-33.86z"/>
  <path class="fil1 str1" d="M1090.59 2.96l173.57 0.07c19.95,0.01 36.26,15.26 36.25,33.89l-0.07 162.21c0,18.63 -16.33,33.87 -36.27,33.86l-173.57 -0.07c-19.95,-0.01 -36.26,-15.26 -36.25,-33.89l0.07 -162.21c0,-18.63 16.33,-33.87 36.27,-33.86z"/>
  <path class="fil3" d="M1110.74 29.32l133.25 0.06c15.52,0 28.21,11.88 28.2,26.37l-0.05 124.52c0,14.5 -12.7,26.36 -28.22,26.36l-133.25 -0.06c-15.52,-0.01 -28.21,-11.88 -28.2,-26.38l0.05 -124.51c0,-14.5 12.7,-26.36 28.22,-26.36z"/>
  <path class="fil0" d="M1146.31 46.27l60.37 0.03 -0.01 12.6 -60.36 -0.02 0 -12.61zm30.23 100.95c8.64,0.01 15.68,6.6 15.68,14.67 0,8.08 -7.05,14.67 -15.7,14.66 -8.64,0 -15.69,-6.59 -15.68,-14.67 0,-8.07 7.05,-14.66 15.7,-14.66zm30.13 -87.19l0 3.09 -60.37 -0.02 0.01 -3.1 60.36 0.03zm0 6.47l-0.02 34.15 -10.76 -0.01c-1.88,-3.14 -7.1,-5.63 -13.71,-6.56l3.05 40.34 2.7 6.72c8.03,3.9 13.54,11.76 13.53,20.77 0,12.88 -11.24,23.37 -25.02,23.37 -13.78,-0.01 -25.02,-10.51 -25.01,-23.39 0,-9.49 6.11,-17.68 14.83,-21.33l2.52 -6.56 3.09 -40.06c-7.13,0.79 -12.83,3.38 -14.83,6.69l-10.75 -0.01 0.01 -34.14 60.37 0.02z"/>
  <polygon class="fil3" points="2.99,258.11 1521.87,258.74 1521.83,356.34 2.96,355.71 "/>
  <polygon class="fil1 str1" points="2.99,258.11 1521.87,258.74 1521.83,356.34 2.96,355.71 "/>
  <path class="fil0" d="M1455.94 331.58c1.2,0 1.63,-0.35 1.31,-1.05 -0.07,-0.13 -17.56,-15.63 -52.55,-46.48 -0.32,-0.21 -0.68,-0.35 -1.13,-0.35l-7.91 0c-0.52,0 -0.83,0.14 -1.11,0.35l-53.82 46.02c-0.36,0.35 -0.53,0.63 -0.4,0.91 0.17,0.35 0.64,0.55 1.46,0.55l57.34 0.03c0.89,0 1.36,-0.28 1.29,-0.91 0.03,-4.39 0.03,-6.63 -0.01,-6.69 -0.19,-0.43 -0.59,-0.63 -1.26,-0.63l-39.57 -0.02 26.19 -22.8 35.67 30.71c0.24,0.21 0.6,0.35 1.05,0.35l33.45 0.01z"/>
  <path class="fil0" d="M1193.5 291.85l21.58 0.01c0.9,0 1.36,-0.28 1.4,-0.84 0.03,-4.4 0,-6.7 -0.04,-6.77 -0.19,-0.42 -0.59,-0.63 -1.26,-0.63l-72.05 -0.03c-0.89,0 -1.36,0.28 -1.36,0.91 -0.03,4.39 -0.03,6.63 0,6.7 0.19,0.42 0.67,0.63 1.34,0.63l20.83 0c-0.19,25.89 -0.27,38.93 -0.24,39 0.2,0.42 0.6,0.63 1.2,0.63l27.02 0.01c0.82,0 1.29,-0.28 1.29,-0.9l0.29 -38.72z"/>
  <path class="fil0" d="M1004.97 309.5c0.88,0 1.34,-0.28 1.27,-0.91 0.1,-4.39 0.1,-6.63 0.07,-6.7 -0.22,-0.48 -0.61,-0.69 -1.27,-0.69l-35.36 -0.02c-0.8,0 -1.26,0.28 -1.27,0.91 -0.03,4.39 0,6.7 0.04,6.77 0.19,0.41 0.58,0.62 1.17,0.62l35.35 0.02z"/>
  <path class="fil0" d="M1004.72 331.41c0.95,0 1.41,-0.28 1.42,-0.91l0.05 -6.42c-0.04,-0.07 -0.1,-0.21 -0.06,-0.28 -0.19,-0.42 -0.66,-0.63 -1.32,-0.63l-33.37 -0.01c-3.38,0 -5.67,-1.33 -6.93,-4.05 -0.86,-1.88 -1.26,-4.81 -1.18,-8.79l0.01 -7.61c-0.01,-3.69 0.44,-6.21 1.31,-7.67 1.21,-2.16 3.55,-3.28 7,-3.28l33.38 0.02c0.95,0 1.41,-0.28 1.37,-0.84l0.02 -6.49c0.04,-0.07 -0.02,-0.21 -0.05,-0.28 -0.2,-0.41 -0.58,-0.62 -1.25,-0.62l-49.66 -0.03c-7.26,0 -13.03,2.44 -17.27,7.25 -3.91,4.4 -5.9,9.98 -5.96,16.68 -0.08,3.97 0.67,7.67 2.27,11.16 1.9,4.12 4.77,7.33 8.55,9.63 3.53,2.09 7.53,3.14 12,3.14l49.67 0.03z"/>
  <path class="fil0" d="M800.79 331.33c0.89,0 1.36,-0.28 1.37,-0.91 0.21,-30.77 0.27,-46.26 0.23,-46.33 -0.19,-0.41 -0.59,-0.63 -1.18,-0.63l-26.96 -0.01c-0.89,0 -1.36,0.28 -1.37,0.91l-0.13 16.74 -22.7 -0.01c0.11,-11.23 0.12,-16.95 0.08,-17.02 -0.19,-0.42 -0.59,-0.63 -1.19,-0.63l-27.02 -0.01c-0.83,0 -1.29,0.28 -1.3,0.91 -0.28,30.77 -0.34,46.25 -0.31,46.32 0.2,0.42 0.59,0.63 1.26,0.63l26.96 0.01c0.89,0 1.36,-0.28 1.29,-0.9l0.16 -21 22.78 0.01c-0.12,14.09 -0.15,21.21 -0.11,21.27 0.19,0.42 0.59,0.63 1.19,0.63l26.95 0.02z"/>
  <path class="fil0" d="M596.64 331.25c1.2,0 1.63,-0.35 1.3,-1.05 -0.06,-0.14 -17.55,-15.64 -52.54,-46.49 -0.32,-0.21 -0.68,-0.35 -1.13,-0.35l-7.91 0c-0.53,0 -0.84,0.14 -1.11,0.35l-53.82 46.03c-0.37,0.34 -0.53,0.62 -0.4,0.9 0.16,0.35 0.63,0.56 1.46,0.56l57.34 0.02c0.89,0 1.36,-0.28 1.29,-0.9 0.03,-4.4 0.03,-6.63 -0.01,-6.7 -0.19,-0.42 -0.59,-0.63 -1.26,-0.63l-39.57 -0.02 26.19 -22.8 35.66 30.71c0.25,0.21 0.61,0.35 1.06,0.35l33.45 0.02z"/>
  <path class="fil0" d="M374.88 331.15c1.19,0 1.62,-0.34 1.3,-1.04 -0.07,-0.14 -17.56,-15.64 -52.54,-46.49 -0.33,-0.21 -0.69,-0.35 -1.14,-0.35l-7.91 0c-0.52,0 -0.83,0.14 -1.11,0.35l-53.56 46.58c-0.36,0.35 -0.52,0.63 -0.39,0.91 0.07,0.15 1.44,0.22 3.23,0.22 6.24,-0.07 6.88,-0.14 6.99,-0.22l34.95 -31.03 35.67 30.71c0.25,0.21 0.61,0.35 1.06,0.35l33.45 0.01z"/>
  <path class="fil2" d="M272.72 403.21l119.96 0.05 -0.01 27.59 -131.45 -0.06 -0.01 12.46 113.47 0.05 -0.01 27.66 -113.47 -0.05 0 11.59 131.45 0.05 -0.02 28.36 -120.24 -0.05c-5.29,0 -10.38,-0.85 -15.21,-2.54 -4.86,-1.71 -9.14,-4.08 -12.86,-7.12 -3.74,-3.05 -6.71,-6.67 -8.93,-10.89 -2.22,-4.23 -3.33,-8.86 -3.33,-13.91l0.02 -38.84c0,-5.38 1.06,-10.18 3.18,-14.45 2.12,-4.27 5.01,-7.87 8.68,-10.81 3.65,-2.97 7.96,-5.21 12.9,-6.76 4.93,-1.56 10.25,-2.33 15.88,-2.33z"/>
  <path class="fil2" d="M452.31 511.19l-29.97 -0.02 0.03 -72.41c0,-2.82 0.47,-5.65 1.4,-8.45 0.93,-2.8 2.22,-5.5 3.88,-8.08 1.62,-2.61 3.56,-5 5.81,-7.22 2.25,-2.21 4.68,-4.15 7.31,-5.79 2.61,-1.66 5.38,-2.94 8.3,-3.88 2.89,-0.94 5.84,-1.42 8.81,-1.42l128.79 0.05 -0.05 107.27 -30.35 -0.01 0.04 -80.04 -103.97 -0.05 -0.03 80.05z"/>
  <path class="fil2" d="M452.31 511.19l-29.97 -0.02 0.03 -72.41c0,-2.82 0.47,-5.65 1.4,-8.45 0.93,-2.8 2.22,-5.5 3.88,-8.08 1.62,-2.61 3.56,-5 5.81,-7.22 2.25,-2.21 4.68,-4.15 7.31,-5.79 2.61,-1.66 5.38,-2.94 8.3,-3.88 2.89,-0.94 5.84,-1.42 8.81,-1.42l128.79 0.05 -0.05 107.27 -30.35 -0.01 0.04 -80.04 -103.97 -0.05 -0.03 80.05z"/>
  <path class="fil2" d="M657.21 403.37l119.96 0.05 -0.01 27.59 -131.45 -0.06 -0.01 12.46 113.47 0.04 -0.01 27.67 -113.47 -0.05 0 11.58 131.45 0.06 -0.01 28.36 -120.25 -0.05c-5.29,0 -10.38,-0.85 -15.21,-2.54 -4.85,-1.71 -9.14,-4.08 -12.86,-7.13 -3.74,-3.04 -6.71,-6.66 -8.93,-10.88 -2.22,-4.23 -3.33,-8.87 -3.33,-13.91l0.02 -38.84c0,-5.38 1.06,-10.18 3.18,-14.45 2.12,-4.28 5.01,-7.87 8.68,-10.81 3.65,-2.97 7.96,-5.21 12.89,-6.76 4.94,-1.56 10.26,-2.33 15.89,-2.33z"/>
  <path class="fil2" d="M930.03 403.48l-119.95 -0.05 -0.01 27.59 131.45 0.05 -0.01 12.46 -113.47 -0.05 -0.01 27.66 113.47 0.05 0 11.59 -131.45 -0.06 -0.02 28.36 120.24 0.05c5.3,0.01 10.39,-0.84 15.22,-2.52 4.85,-1.72 9.14,-4.08 12.87,-7.12 3.74,-3.04 6.71,-6.66 8.94,-10.88 2.22,-4.23 3.34,-8.86 3.34,-13.9l0.01 -38.84c0,-5.38 -1.05,-10.19 -3.17,-14.46 -2.12,-4.27 -5.01,-7.87 -8.67,-10.82 -3.64,-2.97 -7.96,-5.22 -12.89,-6.76 -4.94,-1.57 -10.25,-2.35 -15.89,-2.35z"/>
  <path class="fil2" d="M1300.83 418.25c3.28,0 5.95,2.09 5.95,4.66 -0.01,2.56 -2.68,4.65 -5.95,4.65 -3.27,0 -5.95,-2.09 -5.95,-4.66 0,-2.56 2.68,-4.65 5.95,-4.65z"/>
  <path class="fil2" d="M1300.8 501.5c3.27,0.01 5.94,2.1 5.94,4.66 0,2.57 -2.67,4.66 -5.94,4.66 -3.28,0 -5.95,-2.1 -5.95,-4.66 0,-2.56 2.67,-4.66 5.95,-4.66z"/>
  <path class="fil2" d="M1392.82 511.14l-33.33 -0.02 45.31 -81.82c2.31,-4.17 4.54,-7.93 6.71,-11.22 2.15,-3.32 4.49,-6.14 7.02,-8.48 2.52,-2.31 5.36,-4.1 8.54,-5.35 3.19,-1.25 6.97,-1.86 11.33,-1.86 4.32,0 7.97,0.62 10.97,1.85 3.02,1.22 5.7,2.99 8.04,5.36 2.37,2.36 4.6,5.25 6.7,8.69 2.11,3.47 4.42,7.4 6.94,11.83l45.27 81.07 -32.21 -0.02 -17.47 -28.43 -57.77 -0.03 -16.05 28.43zm45.21 -76.04l8.45 4.17 8.46 4.16 0 8.33 -0.01 8.32 -8.45 4.16 -8.46 4.15 -8.46 -4.16 -8.45 -4.17 0 -8.32 0 -8.32 8.46 -4.16 8.46 -4.16z"/>
  <path class="fil2" d="M1285.76 404.48l59.18 0.02 -98.34 53.29 99.07 53.3 -59.96 -0.03 -51.66 -27.65c-2.43,-1.25 -4.62,-2.51 -6.56,-3.74 -1.93,-1.23 -3.66,-2.5 -5.18,-3.88 -1.5,-1.38 -2.84,-2.87 -4.02,-4.49 -1.19,-1.61 -2.25,-3.47 -3.15,-5.54l-0.02 45.28 -31.89 -0.02 0.05 -106.73 31.89 0.01 -0.02 45.98c0.95,-2.07 2.09,-3.93 3.38,-5.57 1.27,-1.64 2.76,-3.18 4.49,-4.63 1.7,-1.44 3.61,-2.81 5.76,-4.12 2.11,-1.32 4.49,-2.72 7.17,-4.16l49.81 -27.32z"/>
  <path class="fil2" d="M1147.73 457.84c3.28,0 5.95,2.1 5.95,4.66 0,2.57 -2.68,4.66 -5.95,4.66 -3.28,-0.01 -5.95,-2.1 -5.95,-4.66 0.01,-2.57 2.68,-4.66 5.95,-4.66z"/>
  <path class="fil2" d="M1147.75 422.56c3.27,0 5.94,2.1 5.94,4.66 0,2.57 -2.67,4.66 -5.95,4.66 -3.27,-0.01 -5.94,-2.1 -5.94,-4.66 0,-2.57 2.67,-4.66 5.95,-4.66z"/>
  <path class="fil2" d="M1159.37 402.08l-0.04 106.3 -30.01 -0.01 0.01 -39.9 -101.34 -0.05 -0.02 39.91 -29.49 -0.02 0.02 -36.3c0,-2.97 0.67,-6.06 2.02,-9.29 1.31,-3.23 3.2,-6.14 5.62,-8.8 -2.11,-2.82 -3.74,-5.81 -4.84,-8.99 -1.11,-3.18 -1.66,-6.39 -1.65,-9.64 0,-2.92 0.44,-5.79 1.32,-8.59 0.88,-2.79 2.11,-5.44 3.67,-7.9 1.57,-2.49 3.43,-4.75 5.59,-6.78 2.18,-2.04 4.55,-3.83 7.13,-5.3 2.56,-1.49 5.31,-2.65 8.23,-3.47 2.92,-0.81 5.88,-1.22 8.9,-1.22l124.88 0.05zm-30.03 39.63l0.01 -12.88 -101.34 -0.04 -0.01 12.87 101.34 0.05z"/>
  <path class="fil2" d="M1183.23 511.02l-0.38 -0.01c5.73,0.01 7.89,0.01 16.33,0.02 5.51,0 11.07,0.04 16.58,0l0.28 -75.76 -0.14 0c0.08,-0.36 0.13,-28.33 0.13,-31.01 0,-0.81 -33.01,-0.77 -33.01,0.03 -0.01,31.95 0,74.76 0.21,106.73z"/>
  <path class="fil2" d="M96.54 450.39c-0.44,-0.86 -1.05,-1.82 -1.82,-2.86 -0.98,-1.3 -2.07,-2.61 -3.23,-3.88 -1.16,-1.29 -2.3,-2.47 -3.41,-3.58 -1.11,-1.11 -1.96,-1.98 -2.55,-2.65l-30.03 -31.98 -37.69 -0.01 44.36 48.93 0 9.58 -45.18 48.35 35.49 0.01 32.12 -31.54c2.07,-2.02 3.73,-3.71 4.99,-5.08 1.27,-1.36 2.3,-2.54 3.13,-3.53 0.85,-0.99 1.55,-1.88 2.14,-2.68 0.49,-0.7 1.05,-1.4 1.67,-2.11l0.01 -16.97z"/>
  <path class="fil2" d="M130.58 450.4c0.44,-0.86 1.06,-1.81 1.83,-2.85 0.98,-1.3 2.06,-2.61 3.23,-3.89 1.16,-1.28 2.3,-2.46 3.41,-3.57 1.11,-1.11 1.96,-1.98 2.56,-2.65l30.05 -31.95 37.69 0.02 -44.4 48.9 -0.01 9.57 45.14 48.38 -35.49 -0.01 -32.1 -31.56c-2.07,-2.03 -3.72,-3.72 -4.98,-5.1 -1.27,-1.35 -2.3,-2.53 -3.12,-3.52 -0.86,-0.99 -1.55,-1.88 -2.15,-2.68 -0.48,-0.7 -1.05,-1.4 -1.66,-2.12l0 -16.97z"/>
  <polygon class="fil2" points="95.62,509.73 130.4,509.73 130.4,402.41 95.62,402.41 "/>
  <path class="fil2" d="M96.64 497.19l0.14 11.61c4.43,0.03 8.19,0.06 16.46,0.06 8.26,0.01 12.08,-0.02 15.88,-0.11l0.15 -11.54 0.02 -62.06 -0.13 0c0.08,-0.29 -0.01,-28.98 -0.01,-31.18 0,-2.19 -7.19,-1.31 -16.17,-1.31 -8.98,-0.01 -16.31,-1.04 -16.31,1.16 0,2.19 0.04,31.02 0.11,31.32l-0.11 0 -0.03 62.05z"/>
  <path class="fil0" d="M144.9 331.05c0.9,0 1.37,-0.27 1.37,-0.9 0.21,-30.77 0.27,-46.26 0.24,-46.33 -0.2,-0.42 -0.6,-0.62 -1.19,-0.62l-79.29 -0.04c-0.82,0 -1.29,0.28 -1.29,0.91 -0.29,30.77 -0.35,46.25 -0.32,46.32 0.2,0.42 0.6,0.63 1.27,0.63l26.95 0.01c0.9,0 1.36,-0.28 1.29,-0.9l0.44 -38.58 22.77 0c-0.12,14.1 -0.41,38.8 -0.38,38.87 0.2,0.41 0.59,0.62 1.19,0.62l26.95 0.01z"/>
 </g>
</svg>
